<svg width="118" height="118" viewBox="0 0 118 118" fill="none" xmlns="http://www.w3.org/2000/svg">
<path d="M59 29.5C56.2958 29.5 53.9809 28.5371 52.0552 26.6114C50.1295 24.6857 49.1667 22.3708 49.1667 19.6666C49.1667 16.9625 50.1295 14.6475 52.0552 12.7219C53.9809 10.7962 56.2958 9.83331 59 9.83331C61.7042 9.83331 64.0191 10.7962 65.9448 12.7219C67.8705 14.6475 68.8333 16.9625 68.8333 19.6666C68.8333 22.3708 67.8705 24.6857 65.9448 26.6114C64.0191 28.5371 61.7042 29.5 59 29.5ZM44.25 108.167V44.25C39.3333 43.8403 34.3347 43.2257 29.2542 42.4062C24.1736 41.5868 19.3389 40.5625 14.75 39.3333L17.2083 29.5C23.6 31.2208 30.4014 32.4705 37.6125 33.2489C44.8236 34.0274 51.9528 34.4166 59 34.4166C66.0472 34.4166 73.1764 34.0274 80.3875 33.2489C87.5986 32.4705 94.4 31.2208 100.792 29.5L103.25 39.3333C98.6611 40.5625 93.8264 41.5868 88.7458 42.4062C83.6653 43.2257 78.6667 43.8403 73.75 44.25V108.167H63.9167V78.6666H54.0833V108.167H44.25Z" fill="#393939"/>
</svg>
