<svg width="22" height="20" viewBox="0 0 22 20" fill="none" xmlns="http://www.w3.org/2000/svg">
<path d="M17.4885 17C15.6336 17 13.801 16.6215 11.9906 15.8646C10.1803 15.1076 8.53314 14.0347 7.04924 12.6458C5.56534 11.2569 4.41903 9.71528 3.6103 8.02083C2.80158 6.32639 2.39722 4.61111 2.39722 2.875C2.39722 2.625 2.48625 2.41667 2.66432 2.25C2.84239 2.08333 3.06497 2 3.33207 2H6.93795C7.14569 2 7.33118 2.06597 7.49441 2.19792C7.65764 2.32986 7.75409 2.48611 7.78377 2.66667L8.36249 5.58333C8.39217 5.80556 8.38475 5.99306 8.34023 6.14583C8.29571 6.29861 8.2141 6.43056 8.09539 6.54167L5.93631 8.58333C6.23309 9.09722 6.58552 9.59375 6.99359 10.0729C7.40166 10.5521 7.85054 11.0139 8.34023 11.4583C8.80024 11.8889 9.28251 12.2882 9.78703 12.6562C10.2916 13.0243 10.8258 13.3611 11.3896 13.6667L13.4819 11.7083C13.6155 11.5833 13.7898 11.4896 14.005 11.4271C14.2202 11.3646 14.4316 11.3472 14.6394 11.375L17.711 11.9583C17.9188 12.0139 18.0894 12.1146 18.223 12.2604C18.3565 12.4062 18.4233 12.5694 18.4233 12.75V16.125C18.4233 16.375 18.3343 16.5833 18.1562 16.75C17.9782 16.9167 17.7556 17 17.4885 17Z" fill="white"/>
</svg>
