<svg width="88" height="88" viewBox="0 0 88 88" fill="none" xmlns="http://www.w3.org/2000/svg">
<rect x="0.5" y="0.5" width="87" height="87" rx="18.5" stroke="black" stroke-opacity="0.1"/>
<path d="M51.625 65.875C46.9542 65.875 42.7979 64.549 39.1562 61.8969C35.5146 59.2448 32.9417 55.8208 31.4375 51.625H23.125V46.875H30.3688C30.2896 46.4396 30.25 46.0437 30.25 45.6875V43.3125C30.25 42.9562 30.2896 42.5604 30.3688 42.125H23.125V37.375H31.4375C32.9417 33.1792 35.5146 29.7552 39.1562 27.1031C42.7979 24.451 46.9542 23.125 51.625 23.125C54.3562 23.125 56.9391 23.6 59.3734 24.55C61.8078 25.5 63.975 26.8458 65.875 28.5875L61.7188 32.7437C60.3333 31.5958 58.7797 30.6953 57.0578 30.0422C55.3359 29.3891 53.525 29.0625 51.625 29.0625C48.6562 29.0625 45.9547 29.8245 43.5203 31.3484C41.0859 32.8724 39.2354 34.8812 37.9688 37.375H51.625V42.125H36.425C36.3458 42.5604 36.2865 42.9562 36.2469 43.3125C36.2073 43.6687 36.1875 44.0646 36.1875 44.5C36.1875 44.9354 36.2073 45.3312 36.2469 45.6875C36.2865 46.0437 36.3458 46.4396 36.425 46.875H51.625V51.625H37.9688C39.2354 54.1187 41.0859 56.1276 43.5203 57.6516C45.9547 59.1755 48.6562 59.9375 51.625 59.9375C53.525 59.9375 55.3557 59.6109 57.1172 58.9578C58.8786 58.3047 60.4125 57.4042 61.7188 56.2562L65.875 60.4125C63.975 62.1542 61.8078 63.5 59.3734 64.45C56.9391 65.4 54.3562 65.875 51.625 65.875Z" fill="#393939"/>
</svg>
