<svg width="88" height="88" viewBox="0 0 88 88" fill="none" xmlns="http://www.w3.org/2000/svg">
<rect x="0.5" y="0.5" width="87" height="87" rx="18.5" stroke="black" stroke-opacity="0.1"/>
<path d="M17.9 64C17.0783 64 16.3896 63.7245 15.8337 63.1734C15.2779 62.6224 15 61.9396 15 61.125C15 60.6458 15.0967 60.2026 15.29 59.7953C15.4833 59.388 15.7733 59.0646 16.16 58.825L41.1 40.2812V35.25C41.1 34.4354 41.39 33.7526 41.97 33.2016C42.55 32.6505 43.2508 32.375 44.0725 32.375C45.2808 32.375 46.2958 31.9438 47.1175 31.0813C47.9392 30.2188 48.35 29.1885 48.35 27.9906C48.35 26.7927 47.9271 25.7865 47.0812 24.9719C46.2354 24.1573 45.2083 23.75 44 23.75C42.7917 23.75 41.7646 24.1693 40.9187 25.0078C40.0729 25.8464 39.65 26.8646 39.65 28.0625H33.85C33.85 25.2833 34.8408 22.9115 36.8225 20.9469C38.8042 18.9823 41.1967 18 44 18C46.8033 18 49.1958 18.9703 51.1775 20.9109C53.1592 22.8516 54.15 25.2115 54.15 27.9906C54.15 30.2427 53.4854 32.2552 52.1562 34.0281C50.8271 35.801 49.075 37.0229 46.9 37.6938V40.2812L71.84 58.825C72.2267 59.0646 72.5167 59.388 72.71 59.7953C72.9033 60.2026 73 60.6458 73 61.125C73 61.9396 72.7221 62.6224 72.1662 63.1734C71.6104 63.7245 70.9217 64 70.1 64H17.9ZM26.6 58.25H61.4L44 45.3125L26.6 58.25Z" fill="#393939"/>
</svg>
