<svg width="88" height="88" viewBox="0 0 88 88" fill="none" xmlns="http://www.w3.org/2000/svg">
<rect x="0.5" y="0.5" width="87" height="87" rx="18.5" stroke="black" stroke-opacity="0.1"/>
<path d="M44 68.1667C40.9791 68.1667 38.1496 67.5927 35.5114 66.4448C32.8732 65.2969 30.5774 63.7462 28.6239 61.7927C26.6704 59.8393 25.1197 57.5434 23.9718 54.9052C22.8239 52.267 22.25 49.4375 22.25 46.4167C22.25 43.3959 22.8239 40.5664 23.9718 37.9282C25.1197 35.29 26.6704 32.9941 28.6239 31.0407C30.5774 29.0872 32.8732 27.5365 35.5114 26.3886C38.1496 25.2407 40.9791 24.6667 44 24.6667C47.0208 24.6667 49.8503 25.2407 52.4885 26.3886C55.1267 27.5365 57.4225 29.0872 59.376 31.0407C61.3295 32.9941 62.8802 35.29 64.0281 37.9282C65.176 40.5664 65.75 43.3959 65.75 46.4167C65.75 49.4375 65.176 52.267 64.0281 54.9052C62.8802 57.5434 61.3295 59.8393 59.376 61.7927C57.4225 63.7462 55.1267 65.2969 52.4885 66.4448C49.8503 67.5927 47.0208 68.1667 44 68.1667ZM50.7666 56.5667L54.15 53.1834L46.4166 45.45V34.3334H41.5833V47.3834L50.7666 56.5667ZM28.5333 20.6792L31.9166 24.0625L21.6458 34.3334L18.2625 30.95L28.5333 20.6792ZM59.4666 20.6792L69.7375 30.95L66.3541 34.3334L56.0833 24.0625L59.4666 20.6792ZM44 63.3334C48.7125 63.3334 52.71 61.692 55.9927 58.4094C59.2753 55.1268 60.9166 51.1292 60.9166 46.4167C60.9166 41.7042 59.2753 37.7066 55.9927 34.424C52.71 31.1414 48.7125 29.5 44 29.5C39.2875 29.5 35.2899 31.1414 32.0072 34.424C28.7246 37.7066 27.0833 41.7042 27.0833 46.4167C27.0833 51.1292 28.7246 55.1268 32.0072 58.4094C35.2899 61.692 39.2875 63.3334 44 63.3334Z" fill="#393939"/>
</svg>
