<svg width="88" height="88" viewBox="0 0 88 88" fill="none" xmlns="http://www.w3.org/2000/svg">
<rect x="0.5" y="0.5" width="87" height="87" rx="18.5" stroke="black" stroke-opacity="0.1"/>
<path d="M44.5 44.5C46.1156 44.5 47.4987 43.9223 48.6492 42.7669C49.7997 41.6115 50.375 40.2225 50.375 38.6C50.375 36.9775 49.7997 35.5885 48.6492 34.4331C47.4987 33.2777 46.1156 32.7 44.5 32.7C42.8844 32.7 41.5013 33.2777 40.3508 34.4331C39.2003 35.5885 38.625 36.9775 38.625 38.6C38.625 40.2225 39.2003 41.6115 40.3508 42.7669C41.5013 43.9223 42.8844 44.5 44.5 44.5ZM44.5 66.1825C50.4729 60.6758 54.9036 55.6731 57.7922 51.1744C60.6807 46.6756 62.125 42.6808 62.125 39.19C62.125 33.8308 60.4237 29.4427 57.0211 26.0256C53.6185 22.6085 49.4448 20.9 44.5 20.9C39.5552 20.9 35.3815 22.6085 31.9789 26.0256C28.5763 29.4427 26.875 33.8308 26.875 39.19C26.875 42.6808 28.3193 46.6756 31.2078 51.1744C34.0964 55.6731 38.5271 60.6758 44.5 66.1825ZM44.5 74C36.6177 67.2642 30.7305 61.0077 26.8383 55.2306C22.9461 49.4535 21 44.1067 21 39.19C21 31.815 23.3622 25.9396 28.0867 21.5638C32.8112 17.1879 38.2823 15 44.5 15C50.7177 15 56.1888 17.1879 60.9133 21.5638C65.6378 25.9396 68 31.815 68 39.19C68 44.1067 66.0539 49.4535 62.1617 55.2306C58.2695 61.0077 52.3823 67.2642 44.5 74Z" fill="#393939"/>
</svg>
