<svg width="130" height="130" viewBox="0 0 130 130" fill="none" xmlns="http://www.w3.org/2000/svg">
<path d="M21.6666 75.8333C21.6666 66.3542 23.9236 57.9132 28.4375 50.5104C32.9513 43.1076 37.9166 36.8785 43.3333 31.8229C48.75 26.7674 53.7152 22.908 58.2291 20.2448L65 16.25V34.125C65 37.4653 66.1284 40.1059 68.3854 42.0469C70.6423 43.9878 73.1701 44.9583 75.9687 44.9583C77.5034 44.9583 78.9704 44.6424 80.3697 44.0104C81.7691 43.3785 83.0555 42.3403 84.2291 40.8958L86.6666 37.9167C93.1666 41.7083 98.4027 46.967 102.375 53.6927C106.347 60.4184 108.333 67.7986 108.333 75.8333C108.333 83.7778 106.392 91.0226 102.51 97.5677C98.6284 104.113 93.5277 109.281 87.2083 113.073C88.743 110.906 89.9392 108.536 90.7968 105.964C91.6545 103.391 92.0833 100.66 92.0833 97.7708C92.0833 94.1597 91.4062 90.7517 90.052 87.5469C88.6979 84.342 86.7569 81.4757 84.2291 78.9479L65 60.125L45.9062 78.9479C43.2882 81.566 41.302 84.4549 39.9479 87.6146C38.5937 90.7743 37.9166 94.1597 37.9166 97.7708C37.9166 100.66 38.3454 103.391 39.2031 105.964C40.0607 108.536 41.2569 110.906 42.7916 113.073C36.4722 109.281 31.3715 104.113 27.4895 97.5677C23.6076 91.0226 21.6666 83.7778 21.6666 75.8333ZM65 75.2917L76.5104 86.5312C78.0451 88.066 79.2187 89.7812 80.0312 91.6771C80.8437 93.5729 81.25 95.6042 81.25 97.7708C81.25 102.194 79.6701 105.964 76.5104 109.078C73.3507 112.193 69.5138 113.75 65 113.75C60.4861 113.75 56.6493 112.193 53.4895 109.078C50.3298 105.964 48.75 102.194 48.75 97.7708C48.75 95.6945 49.1562 93.6858 49.9687 91.7448C50.7812 89.8038 51.9548 88.066 53.4895 86.5312L65 75.2917Z" fill="#393939"/>
</svg>
