<svg width="24" height="20" viewBox="0 0 24 20" fill="none" xmlns="http://www.w3.org/2000/svg">
<path d="M3.77303 16.3333C3.25886 16.3333 2.8187 16.1701 2.45255 15.8437C2.0864 15.5174 1.90332 15.125 1.90332 14.6667V4.66667C1.90332 4.20833 2.0864 3.81597 2.45255 3.48958C2.8187 3.16319 3.25886 3 3.77303 3H18.7307C19.2449 3 19.6851 3.16319 20.0512 3.48958C20.4174 3.81597 20.6004 4.20833 20.6004 4.66667V14.6667C20.6004 15.125 20.4174 15.5174 20.0512 15.8437C19.6851 16.1701 19.2449 16.3333 18.7307 16.3333H3.77303ZM11.2519 10.5L18.7307 6.33333V4.66667L11.2519 8.83333L3.77303 4.66667V6.33333L11.2519 10.5Z" fill="white"/>
</svg>
