<svg width="88" height="88" viewBox="0 0 88 88" fill="none" xmlns="http://www.w3.org/2000/svg">
<rect x="0.5" y="0.5" width="87" height="87" rx="18.5" stroke="black" stroke-opacity="0.1"/>
<g clip-path="url(#clip0_296_1362)">
<path d="M24.6666 63.3334C23.3374 63.3334 22.1996 62.8601 21.253 61.9136C20.3065 60.9671 19.8333 59.8292 19.8333 58.5001V29.5001C19.8333 28.1709 20.3065 27.0331 21.253 26.0865C22.1996 25.14 23.3374 24.6667 24.6666 24.6667H63.3333C64.6624 24.6667 65.8003 25.14 66.7468 26.0865C67.6933 27.0331 68.1666 28.1709 68.1666 29.5001V44.0001H24.6666V58.5001H48.8333V63.3334H24.6666ZM24.6666 34.3334H63.3333V29.5001H24.6666V34.3334ZM60.9166 68.1667V60.9167H53.6666V56.0834H60.9166V48.8334H65.7499V56.0834H72.9999V60.9167H65.7499V68.1667H60.9166Z" fill="#393939"/>
</g>
<defs>
<clipPath id="clip0_296_1362">
<rect width="58" height="58" fill="white" transform="translate(15 15)"/>
</clipPath>
</defs>
</svg>
