<svg width="88" height="88" viewBox="0 0 88 88" fill="none" xmlns="http://www.w3.org/2000/svg">
<rect x="0.5" y="0.5" width="87" height="87" rx="18.5" stroke="black" stroke-opacity="0.1"/>
<path d="M19.9167 64.1666V57.2832C19.9167 55.9312 20.265 54.661 20.9615 53.4728C21.6581 52.2846 22.6209 51.3833 23.8501 50.7687C25.9397 49.7034 28.2956 48.802 30.9178 48.0645C33.54 47.327 36.4286 46.9583 39.5834 46.9583C40.8126 46.9583 42.011 47.0197 43.1787 47.1426C44.3464 47.2655 45.4834 47.4499 46.5897 47.6958L42.2876 51.9978C41.8369 51.9159 41.3964 51.8749 40.9662 51.8749H39.5834C36.6744 51.8749 34.0624 52.2232 31.7475 52.9197C29.4325 53.6162 27.5376 54.3742 26.0626 55.1937C25.6938 55.3985 25.3968 55.6853 25.1714 56.0541C24.9461 56.4228 24.8334 56.8326 24.8334 57.2832V59.2499H40.198L45.1147 64.1666H19.9167ZM53.2272 65.1499L44.7459 56.6687L48.1876 53.227L53.2272 58.2666L65.6418 45.852L69.0834 49.2937L53.2272 65.1499ZM39.5834 44.4999C36.8792 44.4999 34.5643 43.5371 32.6386 41.6114C30.7129 39.6857 29.7501 37.3708 29.7501 34.6666C29.7501 31.9624 30.7129 29.6475 32.6386 27.7218C34.5643 25.7961 36.8792 24.8333 39.5834 24.8333C42.2876 24.8333 44.6025 25.7961 46.5282 27.7218C48.4539 29.6475 49.4167 31.9624 49.4167 34.6666C49.4167 37.3708 48.4539 39.6857 46.5282 41.6114C44.6025 43.5371 42.2876 44.4999 39.5834 44.4999ZM39.5834 39.5833C40.9355 39.5833 42.093 39.1018 43.0558 38.139C44.0187 37.1761 44.5001 36.0187 44.5001 34.6666C44.5001 33.3145 44.0187 32.157 43.0558 31.1942C42.093 30.2313 40.9355 29.7499 39.5834 29.7499C38.2313 29.7499 37.0739 30.2313 36.111 31.1942C35.1482 32.157 34.6667 33.3145 34.6667 34.6666C34.6667 36.0187 35.1482 37.1761 36.111 38.139C37.0739 39.1018 38.2313 39.5833 39.5834 39.5833Z" fill="#393939"/>
</svg>
