<svg width="88" height="88" viewBox="0 0 88 88" fill="none" xmlns="http://www.w3.org/2000/svg">
<rect x="0.5" y="0.5" width="87" height="87" rx="18.5" stroke="black" stroke-opacity="0.1"/>
<path d="M44.5 57.9187L35.5937 66.825C34.6833 67.7354 33.575 68.1906 32.2687 68.1906C30.9625 68.1906 29.8541 67.7354 28.9437 66.825L22.175 60.0562C21.2645 59.1458 20.8093 58.0375 20.8093 56.7312C20.8093 55.425 21.2645 54.3166 22.175 53.4062L31.0812 44.5L22.175 35.5937C21.2645 34.6833 20.8093 33.575 20.8093 32.2687C20.8093 30.9625 21.2645 29.8541 22.175 28.9437L28.9437 22.175C29.8541 21.2645 30.9625 20.8093 32.2687 20.8093C33.575 20.8093 34.6833 21.2645 35.5937 22.175L44.5 31.0812L53.4062 22.175C54.3166 21.2645 55.425 20.8093 56.7312 20.8093C58.0375 20.8093 59.1458 21.2645 60.0562 22.175L66.825 28.9437C67.7354 29.8541 68.1906 30.9625 68.1906 32.2687C68.1906 33.575 67.7354 34.6833 66.825 35.5937L57.9187 44.5L66.825 53.4062C67.7354 54.3166 68.1906 55.425 68.1906 56.7312C68.1906 58.0375 67.7354 59.1458 66.825 60.0562L60.0562 66.825C59.1458 67.7354 58.0375 68.1906 56.7312 68.1906C55.425 68.1906 54.3166 67.7354 53.4062 66.825L44.5 57.9187ZM44.5 42.125C45.1729 42.125 45.7369 41.8973 46.1921 41.4421C46.6473 40.9869 46.875 40.4229 46.875 39.75C46.875 39.077 46.6473 38.513 46.1921 38.0578C45.7369 37.6026 45.1729 37.375 44.5 37.375C43.827 37.375 43.263 37.6026 42.8078 38.0578C42.3526 38.513 42.125 39.077 42.125 39.75C42.125 40.4229 42.3526 40.9869 42.8078 41.4421C43.263 41.8973 43.827 42.125 44.5 42.125ZM34.4062 41.175L41.175 34.4062L32.2687 25.5L25.5 32.2687L34.4062 41.175ZM39.75 46.875C40.4229 46.875 40.9869 46.6473 41.4421 46.1921C41.8973 45.7369 42.125 45.1729 42.125 44.5C42.125 43.827 41.8973 43.263 41.4421 42.8078C40.9869 42.3526 40.4229 42.125 39.75 42.125C39.077 42.125 38.513 42.3526 38.0578 42.8078C37.6026 43.263 37.375 43.827 37.375 44.5C37.375 45.1729 37.6026 45.7369 38.0578 46.1921C38.513 46.6473 39.077 46.875 39.75 46.875ZM44.5 51.625C45.1729 51.625 45.7369 51.3973 46.1921 50.9421C46.6473 50.4869 46.875 49.9229 46.875 49.25C46.875 48.577 46.6473 48.013 46.1921 47.5578C45.7369 47.1026 45.1729 46.875 44.5 46.875C43.827 46.875 43.263 47.1026 42.8078 47.5578C42.3526 48.013 42.125 48.577 42.125 49.25C42.125 49.9229 42.3526 50.4869 42.8078 50.9421C43.263 51.3973 43.827 51.625 44.5 51.625ZM49.25 46.875C49.9229 46.875 50.4869 46.6473 50.9421 46.1921C51.3973 45.7369 51.625 45.1729 51.625 44.5C51.625 43.827 51.3973 43.263 50.9421 42.8078C50.4869 42.3526 49.9229 42.125 49.25 42.125C48.577 42.125 48.013 42.3526 47.5578 42.8078C47.1026 43.263 46.875 43.827 46.875 44.5C46.875 45.1729 47.1026 45.7369 47.5578 46.1921C48.013 46.6473 48.577 46.875 49.25 46.875ZM47.825 54.5937L56.7312 63.5L63.5 56.7312L54.5937 47.825L47.825 54.5937Z" fill="#393939"/>
</svg>
