<svg width="88" height="88" viewBox="0 0 88 88" fill="none" xmlns="http://www.w3.org/2000/svg">
<rect x="0.5" y="0.5" width="87" height="87" rx="18.5" stroke="black" stroke-opacity="0.1"/>
<path d="M27.6667 67.3334C26.3833 67.3334 25.2847 66.8765 24.3708 65.9626C23.4569 65.0487 23 63.9501 23 62.6667V30.0001C23 28.7167 23.4569 27.6181 24.3708 26.7042C25.2847 25.7904 26.3833 25.3334 27.6667 25.3334H30V20.6667H34.6667V25.3334H53.3333V20.6667H58V25.3334H60.3333C61.6167 25.3334 62.7153 25.7904 63.6292 26.7042C64.5431 27.6181 65 28.7167 65 30.0001V41.6667H60.3333V39.3334H27.6667V62.6667H44V67.3334H27.6667ZM27.6667 34.6667H60.3333V30.0001H27.6667V34.6667ZM48.6667 67.3334V60.1584L61.5583 47.3251C61.9083 46.9751 62.2972 46.7223 62.725 46.5667C63.1528 46.4112 63.5806 46.3334 64.0083 46.3334C64.475 46.3334 64.9222 46.4209 65.35 46.5959C65.7778 46.7709 66.1667 47.0334 66.5167 47.3834L68.675 49.5417C68.9861 49.8917 69.2292 50.2806 69.4042 50.7084C69.5792 51.1362 69.6667 51.564 69.6667 51.9917C69.6667 52.4195 69.5889 52.857 69.4333 53.3042C69.2778 53.7515 69.025 54.1501 68.675 54.5001L55.8417 67.3334H48.6667ZM52.1667 63.8334H54.3833L61.4417 56.7167L60.3917 55.6084L59.2833 54.5584L52.1667 61.6167V63.8334ZM60.3917 55.6084L59.2833 54.5584L61.4417 56.7167L60.3917 55.6084Z" fill="#393939"/>
</svg>
