<svg width="55" height="108" viewBox="0 0 55 108" fill="none" xmlns="http://www.w3.org/2000/svg">
<path d="M16.25 107.5V75.25H0L16.5208 33.8625C17.4236 31.7125 18.8229 30.0104 20.7187 28.7562C22.6146 27.5021 24.7361 26.875 27.0833 26.875C29.4306 26.875 31.5521 27.5021 33.4479 28.7562C35.3437 30.0104 36.7431 31.7125 37.6458 33.8625L54.1667 75.25H37.9167V107.5H16.25ZM27.0833 21.5C24.1042 21.5 21.5538 20.4474 19.4323 18.3422C17.3108 16.237 16.25 13.7062 16.25 10.75C16.25 7.79375 17.3108 5.26302 19.4323 3.15781C21.5538 1.0526 24.1042 0 27.0833 0C30.0625 0 32.6128 1.0526 34.7344 3.15781C36.8559 5.26302 37.9167 7.79375 37.9167 10.75C37.9167 13.7062 36.8559 16.237 34.7344 18.3422C32.6128 20.4474 30.0625 21.5 27.0833 21.5Z" fill="#393939"/>
</svg>
